<?xml version="1.0" ?><svg id="katman_1" style="enable-background:new 0 0 512 512;" version="1.1" viewBox="0 0 512 512" xml:space="preserve" xmlns="http://www.w3.org/2000/svg" xmlns:xlink="http://www.w3.org/1999/xlink"><style type="text/css">
	.st0{fill:#3997D3;}
	.st1{fill:#2981BA;}
	.st2{fill:#FFFFFF;}
</style><g><g><circle class="st0" cx="256" cy="256" r="250"/></g><path class="st1" d="M503.5,291.1c-0.3-0.4-0.6-0.8-1-1.2c-49.3-49.3-98.7-98.6-148-147.9c-0.3-0.3-0.6-0.6-0.8-0.8   c-5.6-5.7-14.6-6.5-21.2-1.5c-3.7,2.9-7.5,5.7-11.3,8.5c-0.5,0.4-1,0.7-1.8,1.2c-0.6-0.7-1.1-1.4-1.7-2.1   c-11.9-11.9-23.8-23.7-35.6-35.7c-3.5-3.5-7.7-5.3-12.7-5.3c-8.6,0-17.3,0-25.9,0c-8,0.1-14.5,5.8-15.7,13.8   c-0.8,5.2-1.6,10.4-2.2,15.7c-0.2,1.9-1,2.6-2.7,3.1c-8.8,2.4-17.2,6-25.2,10.4c-1.6,0.9-2.7,0.9-4.1-0.3c-4-3.2-8.2-6.1-12.2-9.3   c-6.7-5.2-15.9-4.4-21.8,1.6c-5.8,6-11.8,12-17.8,17.8c-6.1,5.9-7.1,15.2-1.5,22.1c3,3.8,5.8,7.8,8.9,11.6c1.2,1.5,1.5,2.7,0.4,4.5   c-4.4,7.8-7.9,16.1-10.3,24.7c-0.6,2.2-1.8,2.9-3.8,3.2c-4,0.4-7.9,1-11.9,1.5c-2,0.3-4,0.5-5.9,1.1c-6.4,1.9-10.9,8-11,14.7   c-0.1,8.6,0.1,17.3-0.1,25.9c-0.1,5.3,1.8,9.6,5.5,13.3c11.9,11.8,23.7,23.6,35.5,35.4c0.6,0.6,1.2,1.2,1.8,1.9   c-0.4,0.5-0.7,1-1,1.4c-2.9,3.8-5.8,7.7-8.6,11.5c-2.1,2.8-3.2,5.9-3.3,9.3c-0.1,4.9,1.9,8.9,5.4,12.4   c49.5,49.4,98.9,98.9,148.3,148.3c0.2,0.2,0.5,0.4,0.7,0.7c0.2,0.2,0.4,0.4,0.5,0.5C401.3,487.8,488.1,400.9,503.5,291.1z"/><g><path class="st2" d="M269.4,406h-26.8c-7.7,0-14.4-5.7-15.6-13.4c-0.8-5.6-1.7-11.4-2.4-17.2c-0.1-0.7-0.6-1.3-1.2-1.4    c-9.7-2.7-19-6.5-27.8-11.5c-0.6-0.3-1.3-0.3-1.9,0.2c-4.6,3.6-9.3,7.1-13.9,10.5c-6.2,4.6-15,3.9-20.5-1.5l-19-19    c-5.5-5.5-6.1-14.3-1.5-20.5c3.4-4.6,6.9-9.3,10.5-13.9c0.4-0.6,0.5-1.3,0.2-1.9c-5-8.7-8.8-18.1-11.5-27.8    c-0.2-0.6-0.7-1.1-1.4-1.2c-5.8-0.8-11.6-1.6-17.2-2.4c-7.6-1.1-13.4-7.8-13.4-15.6v-26.8c0-7.7,5.7-14.4,13.4-15.6    c5.6-0.8,11.4-1.7,17.2-2.4c0.7-0.1,1.3-0.6,1.4-1.2c2.7-9.7,6.5-19,11.5-27.8c0.3-0.6,0.3-1.3-0.2-1.9    c-3.5-4.6-7.1-9.3-10.5-13.9c-4.6-6.2-3.9-15,1.5-20.5l19-19c5.5-5.5,14.3-6.1,20.5-1.5c4.6,3.4,9.3,6.9,13.9,10.5    c0.6,0.4,1.3,0.5,1.9,0.2c8.7-5,18.1-8.8,27.8-11.5c0.6-0.2,1.1-0.7,1.2-1.4c0.8-5.8,1.6-11.6,2.4-17.2    c1.1-7.6,7.8-13.4,15.6-13.4h26.8c7.7,0,14.4,5.7,15.6,13.4c0.8,5.6,1.7,11.4,2.4,17.2c0.1,0.7,0.6,1.3,1.2,1.4    c9.7,2.7,19,6.5,27.8,11.5c0.6,0.3,1.3,0.3,1.9-0.2c4.6-3.6,9.3-7.1,13.9-10.5c6.2-4.6,15-3.9,20.5,1.5l19,19    c5.5,5.5,6.1,14.3,1.5,20.5c-3.4,4.6-6.9,9.3-10.5,13.9c-0.4,0.6-0.5,1.3-0.2,1.9c5,8.7,8.8,18.1,11.5,27.8    c0.2,0.6,0.7,1.1,1.4,1.2c5.8,0.8,11.6,1.6,17.2,2.4c7.6,1.1,13.4,7.8,13.4,15.6v26.8c0,7.7-5.7,14.4-13.4,15.6    c-5.6,0.8-11.4,1.7-17.2,2.4c-0.7,0.1-1.3,0.6-1.4,1.2c-2.7,9.7-6.5,19-11.5,27.8c-0.3,0.6-0.3,1.3,0.2,1.9    c3.6,4.6,7.1,9.3,10.5,13.9c4.6,6.2,3.9,15-1.5,20.5l-19,19c-5.5,5.5-14.3,6.1-20.5,1.5c-4.6-3.4-9.3-6.9-13.9-10.5    c-0.6-0.4-1.3-0.5-1.9-0.2c-8.7,5-18.1,8.8-27.8,11.5c-0.6,0.2-1.1,0.7-1.2,1.4c-0.8,5.8-1.6,11.6-2.4,17.2    C283.8,400.3,277.1,406,269.4,406z M194.8,348.2c2.7,0,5.3,0.7,7.7,2c7.7,4.4,16,7.8,24.6,10.2c6.1,1.7,10.6,6.8,11.4,13.1    c0.7,5.7,1.5,11.4,2.4,17c0.1,0.8,0.9,1.4,1.7,1.4h26.8c0.8,0,1.6-0.6,1.7-1.4c0.8-5.6,1.6-11.3,2.4-17    c0.8-6.3,5.3-11.5,11.4-13.1c8.6-2.4,16.8-5.8,24.6-10.2c5.5-3.1,12.3-2.6,17.3,1.2c4.6,3.5,9.2,7,13.7,10.3    c0.7,0.5,1.6,0.4,2.2-0.2l19-19c0.6-0.6,0.7-1.6,0.2-2.2c-3.3-4.5-6.8-9.1-10.3-13.7c-3.9-5-4.4-11.8-1.2-17.4    c4.4-7.7,7.8-16,10.2-24.6c1.7-6.1,6.8-10.6,13.1-11.4c5.7-0.7,11.4-1.5,17-2.4c0.8-0.1,1.4-0.9,1.4-1.7v-26.8    c0-0.8-0.6-1.6-1.4-1.7c-5.6-0.8-11.3-1.6-17-2.4c-6.3-0.8-11.5-5.3-13.1-11.4c-2.4-8.6-5.8-16.8-10.2-24.6    c-3.1-5.5-2.6-12.3,1.2-17.4c3.5-4.6,7-9.1,10.3-13.7c0.5-0.7,0.4-1.6-0.2-2.2l-19-19c-0.6-0.6-1.6-0.7-2.2-0.2    c-4.5,3.3-9.1,6.8-13.7,10.3c-5,3.9-11.8,4.4-17.3,1.2c-7.7-4.4-16-7.8-24.6-10.2c-6.1-1.7-10.6-6.8-11.4-13.1    c-0.7-5.7-1.5-11.4-2.4-17c-0.1-0.8-0.9-1.4-1.7-1.4h-26.8c-0.8,0-1.6,0.6-1.7,1.4c-0.8,5.5-1.6,11.3-2.4,17    c-0.8,6.3-5.3,11.5-11.4,13.1c-8.6,2.4-16.8,5.8-24.6,10.2c-5.5,3.1-12.3,2.6-17.4-1.2c-4.6-3.5-9.2-7-13.7-10.3    c-0.7-0.5-1.6-0.4-2.2,0.2l-19,19c-0.6,0.6-0.7,1.6-0.2,2.2c3.3,4.5,6.8,9.1,10.3,13.7c3.9,5,4.4,11.8,1.2,17.3    c-4.4,7.7-7.8,16-10.2,24.6c-1.7,6.1-6.8,10.6-13.1,11.4c-5.7,0.7-11.4,1.5-17,2.4c-0.8,0.1-1.4,0.9-1.4,1.7v26.8    c0,0.8,0.6,1.6,1.4,1.7c5.6,0.8,11.3,1.6,17,2.4c6.3,0.8,11.5,5.3,13.1,11.4c2.4,8.6,5.8,16.8,10.2,24.6    c3.1,5.5,2.6,12.3-1.2,17.3c-3.5,4.6-7,9.2-10.3,13.7c-0.5,0.7-0.4,1.6,0.2,2.2l19,19c0.6,0.6,1.6,0.7,2.2,0.2    c4.5-3.3,9.1-6.8,13.7-10.3C188,349.3,191.4,348.2,194.8,348.2z"/><path class="st2" d="M256,321.1c-35.9,0-65.1-29.2-65.1-65.1s29.2-65.1,65.1-65.1s65.1,29.2,65.1,65.1S291.9,321.1,256,321.1z     M256,204.9c-28.2,0-51.1,22.9-51.1,51.1c0,28.2,22.9,51.1,51.1,51.1s51.1-22.9,51.1-51.1S284.2,204.9,256,204.9z"/></g></g></svg>