<?xml version="1.0" ?><svg height="32" id="svg4063" version="1.1" viewBox="0 0 32 32.000001" width="32" xmlns="http://www.w3.org/2000/svg" xmlns:cc="http://creativecommons.org/ns#" xmlns:dc="http://purl.org/dc/elements/1.1/" xmlns:inkscape="http://www.inkscape.org/namespaces/inkscape" xmlns:rdf="http://www.w3.org/1999/02/22-rdf-syntax-ns#" xmlns:sodipodi="http://sodipodi.sourceforge.net/DTD/sodipodi-0.dtd" xmlns:svg="http://www.w3.org/2000/svg"><defs id="defs4065"/><g id="layer1" transform="translate(0,-1020.3621)"><g id="g7966" transform="translate(-766.49658,-562.0323)"><g id="g8584"><path d="m 791.49658,1598.3944 0,10.5 c 0,0.831 -0.66901,1.5 -1.50002,1.5 l -15.99996,0 c -0.83101,0 -1.50002,-0.669 -1.50002,-1.5 l 0,-22 c 0,-0.831 0.66901,-1.5 1.50002,-1.5 l 10.49998,0 1.00005,0 4.49998,0 c 0.83101,0 1.50002,0.669 1.50002,1.5 l 0,8 z" id="path5484" style="opacity:1;fill:#53c4f7;fill-opacity:1;stroke:none;stroke-width:1;stroke-linecap:round;stroke-linejoin:round;stroke-miterlimit:4.0999999;stroke-dasharray:none"/><path d="m 785.49658,1590.3944 -5,0 0,-2 5,0" id="path5486" style="fill:#4788f4;fill-opacity:1;stroke:none;stroke-width:1;stroke-linecap:round;stroke-linejoin:round"/><path d="m 785.49658,1594.3944 -4,0 0,-2 4,0" id="path5488" style="fill:#4788f4;fill-opacity:1;stroke:none;stroke-width:1;stroke-linecap:round;stroke-linejoin:round"/><path d="m 773.99658,1585.3944 c -0.83101,0 -1.5,0.669 -1.5,1.5 l 0,22 c 0,0.831 0.66899,1.5 1.5,1.5 l 2.5,0 0,-25 z" id="path5490" style="opacity:1;fill:#4788f4;fill-opacity:1;stroke:none;stroke-width:1;stroke-linecap:round;stroke-linejoin:round;stroke-miterlimit:4.0999999;stroke-dasharray:none"/><path d="m 785.49658,1585.3944 3,0 0,11 -1.5,-1 -1.5,1 z" id="path5492" style="fill:#f9f9f9;fill-opacity:1;stroke:none;stroke-width:0.99999994;stroke-linecap:round;stroke-linejoin:round"/></g></g></g></svg>